# xmcd
#
# Track frame offsets: 
#        150
#        18419
#        35945
#        57248
#        80731
#        101905
#        123053
#        141714
#        171375
#        194193
#
# Disc length: 3548 seconds
#
# Revision: 5
# Processed by: cddbd v1.5.2PL0 Copyright (c) Steve Scherf et al.
# Submitted via: ExactAudioCopyFreeDBPlugin 1.0
#
DISCID=9e0dda0a
DTITLE=Billy Joel - 52nd Street
DYEAR=1978
DGENRE=Rock
TTITLE0=Big Shot
TTITLE1=Honesty
TTITLE2=My Life
TTITLE3=Zanzibar
TTITLE4=Stiletto
TTITLE5=Rosalinda's Eyes
TTITLE6=Half A Mile Away
TTITLE7=Until The Night
TTITLE8=52nd Street
TTITLE9=(surprise?)
EXTD=YEAR: 1978
EXTT0=
EXTT1=
EXTT2=
EXTT3=
EXTT4=
EXTT5=
EXTT6=
EXTT7=
EXTT8=
EXTT9=
PLAYORDER=
